<?xml version="1.0" encoding="UTF-8"?> <svg xmlns:inkscape="http://www.inkscape.org/namespaces/inkscape" xmlns:rdf="http://www.w3.org/1999/02/22-rdf-syntax-ns#" xmlns="http://www.w3.org/2000/svg" xmlns:sodipodi="http://sodipodi.sourceforge.net/DTD/sodipodi-0.dtd" xmlns:cc="http://creativecommons.org/ns#" xmlns:xlink="http://www.w3.org/1999/xlink" xmlns:dc="http://purl.org/dc/elements/1.1/" sodipodi:docname="american airlines ink.svg" height="224pt" width="990pt" version="1.1" inkscape:version="0.48.3.1 r9886" viewBox="0 0 990 224"><metadata></metadata><defs><clipPath id="clip10"><path d="M0,0h990v223.75h-990v-223.75z"></path></clipPath><linearGradient id="linearGradient4545" y2="36.982" gradientUnits="userSpaceOnUse" x2="1025.9" y1="106.3" x1="1051.8" inkscape:collect="always"><stop stop-color="#1a518b" offset="0"></stop><stop stop-color="#01acea" offset="1"></stop></linearGradient><linearGradient id="linearGradient4568" y2="151.59" gradientUnits="userSpaceOnUse" x2="1098.9" y1="208.71" x1="1137.3" inkscape:collect="always"><stop stop-color="#a11819" offset="0"></stop><stop stop-color="#e81c25" offset="1"></stop></linearGradient><linearGradient id="linearGradient4582" y2="93.359" gradientUnits="userSpaceOnUse" x2="967.94" gradientTransform="matrix(1.0040768,0,0,1.0040768,-107.70514,1.8768756)" y1="123.97" x1="962.85" inkscape:collect="always"><stop stop-color="#A00" offset="0"></stop><stop stop-color="#E00" offset="1"></stop></linearGradient><linearGradient id="linearGradient4600" y2="144.21" gradientUnits="userSpaceOnUse" x2="1062.9" y1="44.636" x1="1256.5" inkscape:collect="always"><stop stop-color="#000" offset="0"></stop><stop stop-color="#FFF" offset="1"></stop></linearGradient></defs><path style="color:#000000;enable-background:accumulate;" d="m854.71,122.4,11.488-18.355,17.2-3.7224,10.718,12.836s-33.244,19.895-33.309,19.574c-0.0639-0.3209-6.097-10.333-6.097-10.333z" fill-rule="nonzero" inkscape:connector-curvature="0" fill="url(#linearGradient4582)"></path><g fill-rule="nonzero" clip-path="url(#clip10)" clip-rule="nonzero" fill="#445669"><path d="m157.23,143.59,0-28.445c0-9.3398-3.375-14.277-9.7695-14.277-4.2148,0-7.9922,2.8477-9.6328,7.2578-0.41797,1.1562-0.66797,2.8555-0.66797,4.5508v30.914h-12.023v-29.84c0-8.1914-3.4414-12.883-9.4414-12.883-5.2891,0-8.668,4.1406-9.9609,7.6914-0.44531,1.4453-0.66797,2.9688-0.66797,4.5469v30.484h-12.023v-36.281c0-5.8438-0.20312-10.863-0.41016-15.137h10.426l0.64453,7.7305h0.95703l0.125-0.20703c2.4024-3.9688,7.0859-8.6992,15.738-8.6992,6.4336,0,11.836,3.5938,14.086,9.3828l0.10938,0.27344h0.74609l0.125-0.19922c1.7188-2.7344,3.8047-4.8945,6.1992-6.418,3.0664-2.0781,6.4023-3.0391,10.504-3.0391,3.9766,0,16.957,1.6016,16.957,22.215v30.379h-12.02z" inkscape:connector-curvature="0"></path><path d="m202.09,99.145c-8.8711,0-12.066,8.2734-12.555,13.16l-0.0469,0.47265h23.863l0.008-0.41796c0.0352-1.5156-0.12109-6.7266-3.5391-10.219-1.9453-1.9844-4.543-2.9961-7.7305-2.9961m2.1484,45.512c-16.352,0-26.508-9.9531-26.508-25.977,0-13.332,7.8555-27.688,25.117-27.688,16.316,0,22.105,13.469,22.105,25.004,0,2.4805-0.21875,4.2617-0.36328,5.1562h-35.074l0.0195,0.44532c0.34765,10.273,8.7656,13.934,16.527,13.934,6.457,0,10.793-1.1016,14.172-2.2305l1.7578,8.1992c-3.5469,1.4727-9.418,3.1562-17.754,3.1562" inkscape:connector-curvature="0"></path><path d="m234.29,143.59,0-34.992c0-7.3398-0.11719-12.152-0.39844-16.426h10.516l0.53516,9.8789h1.0312l0.0977-0.28907c2.3086-6.543,7.7969-10.766,13.977-10.766,1.1094,0,1.8047,0.07812,4.832,0.24219v11.484c-3.2383-0.17187-4.3281-0.25-5.6914-0.25-6.2891,0-10.977,3.9609-12.227,10.336-0.21094,1.1836-0.32813,2.5859-0.32813,4.0508v26.73h-12.344z" inkscape:connector-curvature="0"></path><path d="m318.86,144.66c-16.105,0-26.512-10.32-26.512-26.297,0-16.371,11.516-27.367,28.66-27.367,4.2148,0,8.9805,0.84766,12.27,2.1875l-2.1523,9.1055c-2.707-1.2461-5.8789-1.8516-9.6875-1.8516-4.6992,0-8.7383,1.5742-11.68,4.5508-3.1172,3.1562-4.8008,7.7148-4.7422,12.844,0,10.332,6.5977,17.281,16.422,17.281,3.6367,0,6.8594-0.60156,10.082-1.875l1.6719,8.9141c-2.7422,1.1875-8,2.5078-14.332,2.5078" inkscape:connector-curvature="0"></path><path d="m369.13,118.03c-11.922,0-17.965,3.4336-17.965,10.203,0,4.8984,3.0469,7.9414,7.9414,7.9414,5.7031,0,9.543-3.7539,10.816-7.4805,0.34766-1.0352,0.34766-2.0508,0.34766-3.0352v-7.6172l-1.1406-0.0117zm-14.207,26.73c-10.496,0-15.996-7.6133-15.996-15.133,0-12.461,10.703-19.32,30.137-19.32l0.88671,0.004v-1.2891c0-3.5703-1.4375-9.5547-11.055-9.5547-4.7969,0-10.031,1.3867-13.812,3.6367l-2.3164-7.7344c2.0938-1.2266,8.4727-4.3789,18.383-4.3789,17.477,0,21.145,11.785,21.145,21.68v18.781c0,5.1914,0.25782,9.2695,0.76954,12.133h-11.031l-0.97266-5.7969h-0.89063l-0.13281,0.17188c-3.3008,4.3203-8.8086,6.8008-15.113,6.8008" inkscape:connector-curvature="0"></path><path d="m426.52,143.59,0-29.09c0-8.793-3.6992-13.633-10.418-13.633-5.8242,0-9.4102,4.3164-10.707,8.0117-0.41406,1.043-0.66796,2.668-0.66796,4.332v30.379h-12.344v-36.281c0-5.8438-0.20704-10.863-0.40625-15.137h10.641l0.63672,7.8359h0.96875l0.12109-0.21485c2.4648-4.25,8.0625-8.7969,16.371-8.7969,8.7773,0,18.148,5.7812,18.148,22v30.594h-12.344z" inkscape:connector-curvature="0"></path><path d="m551.87,143.59,0-34.992c0-7.3398-0.11328-12.152-0.40235-16.426h10.512l0.53906,9.8789h1.0352l0.0977-0.28907c2.3086-6.543,7.7969-10.766,13.977-10.766,1.1055,0,1.8047,0.07812,4.8359,0.24219v11.484c-3.2422-0.17187-4.332-0.25-5.6953-0.25-6.293,0-10.977,3.9609-12.227,10.336-0.21094,1.1836-0.32812,2.5859-0.32812,4.0508v26.73h-12.344z" inkscape:connector-curvature="0"></path><path d="m587.93,68.238,12.344,0,0,75.348-12.344,0,0-75.348z" inkscape:connector-curvature="0"></path><path d="m672.83,143.59,0-29.09c0-8.793-3.7031-13.633-10.414-13.633-5.8281,0-9.4102,4.3164-10.711,8.0117-0.41406,1.0469-0.66796,2.668-0.66796,4.332v30.379h-12.344v-36.281c0-5.8438-0.20704-10.863-0.40625-15.137h10.637l0.64454,7.8359h0.96484l0.12891-0.21485c2.4609-4.25,8.0547-8.7969,16.367-8.7969,8.7734,0,18.145,5.7812,18.145,22v30.594h-12.344z" inkscape:connector-curvature="0"></path><path d="m718.98,99.145c-8.875,0-12.066,8.2734-12.562,13.16l-0.043,0.47265h23.863l0.0156-0.41796c0.0312-1.5156-0.12891-6.7266-3.5508-10.219-1.9375-1.9844-4.5352-2.9961-7.7227-2.9961m2.1484,45.512c-16.355,0-26.516-9.9531-26.516-25.977,0-13.332,7.8555-27.688,25.117-27.688,16.32,0,22.109,13.469,22.109,25.004,0,2.4883-0.21875,4.2695-0.35938,5.1562h-35.074l0.0117,0.44532c0.35156,10.273,8.7774,13.934,16.535,13.934,6.4492,0,10.793-1.0977,14.168-2.2305l1.75,8.2c-3.543,1.4727-9.418,3.1562-17.75,3.1562" inkscape:connector-curvature="0"></path><path d="m763.4,144.66c-5.707,0-11.289-1.25-15.379-3.4375l2.4414-8.7812c3.1289,1.8125,8.5547,3.6328,13.051,3.6328,5.5898,0,8.7969-2.3125,8.7969-6.3359,0-4.0547-2.8555-5.8203-8.8672-8.0195-9.2305-3.1133-14.102-8.2422-14.102-14.84,0-9.3555,7.9453-15.883,19.32-15.883,4.9883,0,9.9766,1.0781,13.445,2.8945l-2.4297,8.375c-2.4492-1.3477-6.5469-2.793-10.797-2.793-4.6992,0-7.7344,2.3594-7.7344,6.0078,0,3.6289,2.7773,5.2422,9.4023,7.707,9.4883,3.3008,13.57,7.9297,13.676,15.488,0,9.8594-7.9766,15.984-20.824,15.984" inkscape:connector-curvature="0"></path><path d="m44.922,118.85,6.7148-23.254c0.75391-2.7383,1.5078-5.7852,2.2305-8.7188,0.41016-1.6602,0.8125-3.2812,1.2031-4.7969l0.08203-0.32031h0.88281l0.70703,2.793c0.88281,3.5039,1.8906,7.4805,3.0156,11.031l6.9258,23.266h-21.762zm29.121,24.738,13.371,0-23.227-71.484-16.223,0-22.91,71.484,12.723,0,4.5508-15.766,27.027,0,4.6875,15.766z" inkscape:connector-curvature="0"></path><path d="m477.45,118.85,6.7188-23.254c0.75-2.7383,1.5-5.7852,2.2305-8.7188,0.41016-1.6602,0.8086-3.2812,1.1992-4.7969l0.0859-0.32031h0.88281l0.70313,2.793c0.88672,3.5039,1.8945,7.4805,3.0156,11.031l6.9258,23.266h-21.762zm29.125,24.738,13.367,0-23.227-71.484-16.219,0-22.918,71.484,12.727,0,4.5547-15.766,27.02,0,4.6953,15.766z" inkscape:connector-curvature="0"></path><path d="m271.64,92.168,12.344,0,0,51.418-12.344,0,0-51.418z" inkscape:connector-curvature="0"></path><path d="m283.37,72.539-11.066,0,0,10.547,11.066,0,0-10.547z" inkscape:connector-curvature="0"></path><path d="m526.01,92.168,12.344,0,0,51.418-12.344,0,0-51.418z" inkscape:connector-curvature="0"></path><path d="m537.74,72.539-11.066,0,0,10.547,11.066,0,0-10.547z" inkscape:connector-curvature="0"></path><path d="m614.29,92.168,12.344,0,0,51.418-12.344,0,0-51.418z" inkscape:connector-curvature="0"></path><path d="m626.02,72.539-11.07,0,0,10.547,11.07,0,0-10.547z" inkscape:connector-curvature="0"></path><path d="m947.91,164.9-2.2031,0,0-0.79688,5.3594,0,0,0.79688-2.2109,0,0,6.4453-0.94531,0,0-6.4453z" inkscape:connector-curvature="0"></path><path d="m957.98,168.16c-0.0508-1.0117-0.12109-2.2344-0.12109-3.125h-0.0195c-0.25782,0.83594-0.55078,1.75-0.91407,2.75l-1.2773,3.5078h-0.70703l-1.1836-3.4453c-0.33985-1.0312-0.625-1.9531-0.82422-2.8125h-0.0234c-0.0234,0.90235-0.0742,2.1055-0.14063,3.2031l-0.1914,3.1016h-0.89453l0.50781-7.2422h1.1875l1.2383,3.5078c0.30469,0.88672,0.53906,1.6836,0.73438,2.4336h0.0117c0.19532-0.73047,0.45704-1.5274,0.77735-2.4336l1.2891-3.5078h1.1992l0.44531,7.2422h-0.92187l-0.17188-3.1797z" inkscape:connector-curvature="0"></path></g><path style="enable-background:accumulate;color:#000000;" d="m998.04,36.852,33.513,55.12c9.155,13.79,12.87,16.598,36.315,16.147l23.345,0.009-40.066-49.528c-14.176-19.398-23.168-22.259-40.074-21.856z" sodipodi:nodetypes="ccccccc" inkscape:connector-curvature="0" transform="scale(0.8,0.8)" fill="url(#linearGradient4545)"></path><path style="enable-background:accumulate;color:#000000;" d="m1177.9,214.13-62.698-75.75c-19.371,2.4181-32.393,9.3553-40.917,24.691l19.268,32.496c13.756,19.718,27.473,18.64,38.757,18.607z" sodipodi:nodetypes="cccccc" inkscape:connector-curvature="0" transform="scale(0.8,0.8)" fill="url(#linearGradient4568)"></path><path style="enable-background:accumulate;color:#000000;" d="m1133.6,126.63c-5.7302-13.374-24.434-15.308-39.897-14.871-6.6866,0.40342-13.577,0.68113-19.799,1.3852-3.0793,0.35426-6.404,1.1174-10.508,3.1799-13.038,8.4551-7.4295,15.259-4.4897,21.224l15.306,25.306c-0.8237-30.457,29.915-38.054,59.388-36.224z" sodipodi:nodetypes="ccccccc" inkscape:connector-curvature="0" transform="scale(0.8,0.8)" fill="url(#linearGradient4600)"></path></svg> 